REM DIRINDEX 1\4,1\2\5,1\2\6,1\3\7,1\3\8
REM DIRNAME cjc124,folder01,folder02,folder03,folder04,folder05,folder06,folder07
TITLE ""
FILE "046_Day23_Check3_Sentences.mp3" MP3
  TRACK 01 AUDIO
    TITLE "0:"
    INDEX 01 00:00:00
  TRACK 02 AUDIO
    TITLE "4:cjc124_1488"
    INDEX 01 00:00:25
  TRACK 03 AUDIO
    TITLE "0:"
    INDEX 01 00:01:52
  TRACK 04 AUDIO
    TITLE "7:cjc124_1489"
    INDEX 01 00:02:26
  TRACK 05 AUDIO
    TITLE "0:"
    INDEX 01 00:04:70
  TRACK 06 AUDIO
    TITLE "8:cjc124_1490"
    INDEX 01 00:05:12
  TRACK 07 AUDIO
    TITLE "0:"
    INDEX 01 00:07:31
  TRACK 08 AUDIO
    TITLE "7:cjc124_1491"
    INDEX 01 00:07:68
  TRACK 09 AUDIO
    TITLE "0:"
    INDEX 01 00:10:39
  TRACK 10 AUDIO
    TITLE "8:cjc124_1492"
    INDEX 01 00:10:65
  TRACK 11 AUDIO
    TITLE "0:"
    INDEX 01 00:13:22
  TRACK 12 AUDIO
    TITLE "7:cjc124_1493"
    INDEX 01 00:13:61
  TRACK 13 AUDIO
    TITLE "0:"
    INDEX 01 00:16:00
  TRACK 14 AUDIO
    TITLE "8:cjc124_1494"
    INDEX 01 00:16:16
  TRACK 15 AUDIO
    TITLE "0:"
    INDEX 01 00:18:25
  TRACK 16 AUDIO
    TITLE "7:cjc124_1495"
    INDEX 01 00:18:62
  TRACK 17 AUDIO
    TITLE "0:"
    INDEX 01 00:21:37
  TRACK 18 AUDIO
    TITLE "8:cjc124_1496"
    INDEX 01 00:21:53
  TRACK 19 AUDIO
    TITLE "0:"
    INDEX 01 00:24:55
  TRACK 20 AUDIO
    TITLE "7:cjc124_1497"
    INDEX 01 00:25:15
  TRACK 21 AUDIO
    TITLE "0:"
    INDEX 01 00:27:22
  TRACK 22 AUDIO
    TITLE "8:cjc124_1498"
    INDEX 01 00:27:49
  TRACK 23 AUDIO
    TITLE "0:"
    INDEX 01 00:30:22
  TRACK 24 AUDIO
    TITLE "7:cjc124_1499"
    INDEX 01 00:30:59
  TRACK 25 AUDIO
    TITLE "0:"
    INDEX 01 00:33:48
  TRACK 26 AUDIO
    TITLE "8:cjc124_1500"
    INDEX 01 00:33:66
  TRACK 27 AUDIO
    TITLE "0:"
    INDEX 01 00:36:48
  TRACK 28 AUDIO
    TITLE "7:cjc124_1501"
    INDEX 01 00:37:14
  TRACK 29 AUDIO
    TITLE "0:"
    INDEX 01 00:39:39
  TRACK 30 AUDIO
    TITLE "8:cjc124_1502"
    INDEX 01 00:39:54
  TRACK 31 AUDIO
    TITLE "0:"
    INDEX 01 00:42:37
  TRACK 32 AUDIO
    TITLE "7:cjc124_1503"
    INDEX 01 00:43:05
  TRACK 33 AUDIO
    TITLE "0:"
    INDEX 01 00:46:09
  TRACK 34 AUDIO
    TITLE "8:cjc124_1504"
    INDEX 01 00:46:25
  TRACK 35 AUDIO
    TITLE "0:"
    INDEX 01 00:50:03
  TRACK 36 AUDIO
    TITLE "7:cjc124_1505"
    INDEX 01 00:50:41
  TRACK 37 AUDIO
    TITLE "0:"
    INDEX 01 00:53:17
  TRACK 38 AUDIO
    TITLE "8:cjc124_1506"
    INDEX 01 00:53:33
  TRACK 39 AUDIO
    TITLE "0:"
    INDEX 01 00:56:10
  TRACK 40 AUDIO
    TITLE "7:cjc124_1507"
    INDEX 01 00:56:51
  TRACK 41 AUDIO
    TITLE "0:"
    INDEX 01 00:58:40
  TRACK 42 AUDIO
    TITLE "8:cjc124_1508"
    INDEX 01 00:58:58
  TRACK 43 AUDIO
    TITLE "0:"
    INDEX 01 01:01:44
  TRACK 44 AUDIO
    TITLE "7:cjc124_1509"
    INDEX 01 01:02:06
  TRACK 45 AUDIO
    TITLE "0:"
    INDEX 01 01:05:01
  TRACK 46 AUDIO
    TITLE "8:cjc124_1510"
    INDEX 01 01:05:19
  TRACK 47 AUDIO
    TITLE "0:"
    INDEX 01 01:07:25
  TRACK 48 AUDIO
    TITLE "7:cjc124_1511"
    INDEX 01 01:07:63
  TRACK 49 AUDIO
    TITLE "0:"
    INDEX 01 01:10:49
  TRACK 50 AUDIO
    TITLE "8:cjc124_1512"
    INDEX 01 01:10:67
  TRACK 51 AUDIO
    TITLE "0:"
    INDEX 01 01:13:51
  TRACK 52 AUDIO
    TITLE "7:cjc124_1513"
    INDEX 01 01:14:12
  TRACK 53 AUDIO
    TITLE "0:"
    INDEX 01 01:16:28
  TRACK 54 AUDIO
    TITLE "8:cjc124_1514"
    INDEX 01 01:16:42
  TRACK 55 AUDIO
    TITLE "0:"
    INDEX 01 01:18:62
  TRACK 56 AUDIO
    TITLE "7:cjc124_1515"
    INDEX 01 01:19:23
  TRACK 57 AUDIO
    TITLE "0:"
    INDEX 01 01:22:19
  TRACK 58 AUDIO
    TITLE "8:cjc124_1516"
    INDEX 01 01:22:48
  TRACK 59 AUDIO
    TITLE "0:"
    INDEX 01 01:24:55
  TRACK 60 AUDIO
    TITLE "7:cjc124_1517"
    INDEX 01 01:25:19
  TRACK 61 AUDIO
    TITLE "0:"
    INDEX 01 01:28:49
  TRACK 62 AUDIO
    TITLE "8:cjc124_1518"
    INDEX 01 01:28:65
  TRACK 63 AUDIO
    TITLE "0:"
    INDEX 01 01:32:27
  TRACK 64 AUDIO
    TITLE "7:cjc124_1519"
    INDEX 01 01:32:62
  TRACK 65 AUDIO
    TITLE "0:"
    INDEX 01 01:35:51
  TRACK 66 AUDIO
    TITLE "8:cjc124_1520"
    INDEX 01 01:35:69
  TRACK 67 AUDIO
    TITLE "0:"
    INDEX 01 01:38:49
